<svg preserveAspectRatio="none" overflow="visible" style="display: block;" width="159.991" height="107.695" viewBox="0 0 159.991 107.695" fill="none" xmlns="http://www.w3.org/2000/svg">
<g id="_&#195;&#170;&#194;&#178;&#194;&#169;&#195;&#171;&#194;&#166;&#194;&#172;_&#195;&#171;&#194;&#170;&#194;&#168;&#195;&#171;&#194;&#147;&#194;&#156;">
<path id="Vector" d="M126.564 47.7509C129.261 47.7509 132.019 47.2888 134.711 46.31C140.204 44.3157 144.632 40.4963 147.178 35.547C149.789 30.4697 150.125 24.8252 148.119 19.652C146.114 14.4786 142.021 10.4396 136.594 8.27603C131.309 6.16734 125.372 6.1033 119.879 8.09763C108.396 12.2647 102.383 24.2215 106.471 34.7603C109.602 42.8245 117.755 47.7555 126.559 47.7509H126.564ZM123.815 18.2385C125.206 17.7353 126.644 17.4838 128.064 17.4838C129.483 17.4838 130.974 17.7536 132.322 18.2933C134.839 19.2997 136.726 21.1339 137.626 23.4576C138.529 25.7859 138.359 28.3656 137.142 30.7213C135.86 33.2096 133.6 35.1446 130.77 36.1691C125.074 38.2366 118.876 35.8947 116.96 30.9547C115.043 26.0099 118.114 20.3061 123.815 18.243V18.2385Z" fill="#364153"/>
<path id="Vector_2" d="M54.6878 68.1973C49.4031 66.0886 43.4654 66.0246 37.9725 68.0189C26.4899 72.1813 20.4766 84.1427 24.5643 94.6769C26.5704 99.8503 30.6628 103.889 36.0895 106.053C38.81 107.137 41.7055 107.681 44.6199 107.681C47.3686 107.681 50.1364 107.197 52.8048 106.231C64.2874 102.069 70.3006 90.1074 66.2129 79.5732C64.2069 74.3998 60.1144 70.3609 54.6878 68.1973ZM48.8684 96.0903C46.0392 97.115 43.0159 97.0967 40.3617 96.04C37.8448 95.0338 35.9571 93.1995 35.0581 90.8759C33.142 85.9312 36.2125 80.2273 41.9136 78.1643C43.3046 77.6611 44.7428 77.4096 46.1575 77.4096C47.5721 77.4096 49.0671 77.6794 50.4155 78.2192C52.9325 79.2255 54.8203 81.0598 55.7192 83.3834C57.6352 88.328 54.5647 94.032 48.8637 96.0949L48.8684 96.0903Z" fill="#364153"/>
<path id="Vector_3" d="M153.635 88.1314C153.375 87.8295 152.917 87.7792 152.599 88.0262C148.952 90.8073 135.913 99.6353 121.672 95.9622C118.323 95.0978 115.133 93.6066 112.181 91.5208C111.855 91.2921 111.396 91.3561 111.154 91.6672L105.25 99.123C104.994 99.4433 105.065 99.9052 105.402 100.148C109.522 103.089 114.022 105.198 118.781 106.428C122.055 107.274 125.385 107.695 128.768 107.695C134.621 107.695 140.62 106.433 146.695 103.908C152.874 101.341 157.539 98.0664 159.711 96.3969C160.037 96.1452 160.084 95.6833 159.82 95.3722L153.631 88.136L153.635 88.1314Z" fill="#364153"/>
<path id="Vector_4" d="M134.848 63.5682C135.208 63.3579 135.681 63.4814 135.889 63.8335C137.346 66.3264 138.401 69.0298 138.998 71.8063C139.646 74.8297 139.764 77.9173 139.343 80.9912C139.29 81.3754 139.57 81.7322 139.967 81.7917L149.562 83.2417C149.979 83.3056 150.361 83.0221 150.419 82.6195C151.034 78.265 150.882 73.8921 149.964 69.6061C149.141 65.7592 147.675 62.0085 145.664 58.5549C145.456 58.1982 145.602 57.75 145.976 57.5624C148.862 56.1261 151.795 54.7585 154.771 53.4594C155.145 53.2947 155.315 52.8694 155.145 52.508L151.185 43.936C151.015 43.5701 150.569 43.4054 150.196 43.5701C132.246 51.3965 115.81 61.5968 101.333 73.8967C97.8503 76.8516 94.7278 79.7242 91.9695 82.2536C90.7393 83.3834 89.3531 84.6596 87.9953 85.8626C87.4607 86.3383 86.6091 85.8718 86.7557 85.1857C86.7746 85.0896 86.7983 84.9935 86.8173 84.8974C87.8155 80.2593 89.4903 73.9287 91.6146 65.9102C92.1446 63.9113 92.7028 61.8026 93.2847 59.5796C99.2934 36.718 102.553 23.2426 103.854 15.8966C104.975 9.56135 105.449 4.84999 101.333 1.88595C95.3428 -2.42289 86.5287 1.80819 83.6284 3.19872C78.0929 5.8563 71.3179 10.2109 63.483 16.1435C59.859 18.8881 56.0976 21.9024 52.2796 25.1135C51.7308 25.5754 50.9028 25.0906 51.0637 24.4045C51.674 21.788 51.6551 18.728 49.3368 16.3402C47.9269 14.8856 45.2586 13.3487 40.5746 14.2956C38.2232 14.7713 35.3373 15.8554 31.751 17.6027C24.7157 21.0333 14.9979 27.0025 2.05338 35.8398C1.71746 36.0685 1.63704 36.5214 1.87359 36.8461L7.48477 44.5078C7.72133 44.8326 8.18972 44.9103 8.52563 44.6816C18.8254 37.6466 27.1996 32.3771 33.4211 29.0152C34.3012 28.5395 35.1054 28.1187 35.8435 27.7436C36.5058 27.4097 37.2108 28.1187 36.837 28.7453C35.413 31.1101 33.3832 34.2068 30.4973 38.2275C24.7252 46.2643 17.5243 55.2296 12.268 61.7798C9.77466 64.8856 7.62198 67.5661 6.13166 69.5101C5.27531 70.6261 4.68392 71.4403 4.26757 72.067C3.93639 72.5702 3.6951 72.9864 3.50584 73.3798C2.17166 76.1975 3.32133 78.8047 5.04821 80.1449C6.6379 81.3754 9.4766 82.1072 12.2349 80.1175C12.6039 79.8521 12.9966 79.5229 13.4697 79.0837C14.0942 78.5028 14.9128 77.6748 15.9772 76.5497C17.8508 74.5691 20.2116 71.9664 22.705 69.2081C24.536 67.1864 26.4332 65.096 28.0655 63.3258C34.4478 56.4325 41.6865 49.2878 49.0434 42.5775C49.3321 42.3122 49.7863 42.3122 50.0701 42.5775C50.6616 43.1309 51.2435 43.7439 51.797 44.4346C52.8379 45.7291 53.6847 47.1608 54.3235 48.6977C54.4749 49.0591 54.8912 49.2375 55.265 49.1094L64.4103 45.9395C64.8078 45.8022 65.0065 45.3769 64.8551 44.9973C63.8143 42.3991 62.3996 39.9794 60.6443 37.7975C59.9536 36.9376 59.206 36.1142 58.4112 35.3366C58.1131 35.0439 58.1321 34.5636 58.4538 34.2892C61.6946 31.5356 64.8976 28.9237 67.9966 26.5131C81.2297 16.2167 88.511 12.658 92.1256 11.4413C92.6555 11.2629 93.1949 11.6884 93.1145 12.2235C92.8684 13.8519 92.4426 16.1984 91.714 19.5788C90.0486 27.2816 87.1011 39.1423 82.4314 56.9129C81.8495 59.1314 81.2912 61.2355 80.766 63.2298C78.0551 73.4895 76.0916 80.9042 75.1833 86.1097C74.6486 89.1788 74.4783 91.4659 74.6533 93.3093C75.0413 97.3575 77.142 99.306 78.8358 100.23C80.1084 100.921 81.3905 101.191 82.6159 101.191C86.1312 101.191 89.2064 98.9721 90.4319 98.0939C93.0766 96.1864 96.1424 93.3733 99.6908 90.1166C102.373 87.6511 105.415 84.8608 108.732 82.0432C116.818 75.1774 125.552 69.0069 134.853 63.5774L134.848 63.5682Z" fill="#364153"/>
<path id="Vector_5" d="M17.4676 19.8532C20.8788 17.6759 24.3893 15.5535 27.9093 13.5408C28.2641 13.3396 28.3824 12.8959 28.1742 12.5529L23.2585 4.45662C23.0503 4.11355 22.5915 3.99462 22.2318 4.20046C18.5415 6.30914 14.8654 8.53217 11.2886 10.8192C7.57467 13.1933 3.88434 15.6861 0.302839 18.243C-0.0283434 18.4809 -0.0993111 18.9337 0.14671 19.254L5.93768 26.7875C6.1837 27.1078 6.64735 27.1718 6.97854 26.9385C10.3944 24.5005 13.9191 22.1174 17.4629 19.8532H17.4676Z" fill="#364153"/>
</g>
</svg>
